<svg width="500" height="250" viewBox="0 0 500 250" fill="none" xmlns="http://www.w3.org/2000/svg">
<rect width="500" height="250" rx="18" fill="white"/>
<g style="mix-blend-mode:multiply">
<path d="M113.525 25.291C110.439 25.291 107.126 39.2181 101.856 39.2181H124.817C124.817 39.2181 118.494 25.291 113.525 25.291Z" fill="#111827"/>
</g>
<g style="mix-blend-mode:multiply">
<path d="M83.4878 25.291C87.2519 25.291 90.6395 39.2181 95.1564 39.2181H72.1956C72.1956 39.2181 78.5945 25.291 83.4878 25.291Z" fill="#111827"/>
</g>
<path d="M129.56 59.5441C129.56 78.046 115.674 93.0443 98.5441 93.0443C81.4145 93.0443 67.5281 78.046 67.5281 59.5441C67.5281 44.6804 82.1212 39.2181 98.5441 39.2181C114.967 39.2181 129.56 44.6804 129.56 59.5441Z" fill="url(#paint0_linear_2511_9876)"/>
<path d="M129.56 59.5441C129.56 78.046 115.674 93.0443 98.5441 93.0443C81.4145 93.0443 67.5281 78.046 67.5281 59.5441C67.5281 44.6804 82.1212 39.2181 98.5441 39.2181C114.967 39.2181 129.56 44.6804 129.56 59.5441Z" fill="url(#paint1_radial_2511_9876)"/>
<path d="M81.8316 77.2352C73.4001 77.2352 67.5281 69.1801 67.5281 59.5441C67.5281 51.284 70.0877 35.3787 83.3372 26.0439C88.1193 31.651 92.2204 39.2181 95.2317 39.2181H101.856C104.868 39.2181 107.728 33.572 113.751 26.0439C127 35.3787 129.56 51.7804 129.56 59.5441C129.56 69.1801 123.688 77.2352 115.257 77.2352C106.825 77.2352 105.169 74.7509 98.5441 74.7509C91.9193 74.7509 90.2631 77.2352 81.8316 77.2352Z" fill="url(#paint2_radial_2511_9876)"/>
<g style="mix-blend-mode:multiply" opacity="0.5">
<path d="M115.257 46.9721C125.194 46.9721 128.054 55.1777 128.054 59.5441C128.054 63.8305 126.323 64.4374 109.159 64.4374L104.792 64.4374V59.5441C104.792 51.6772 107.954 46.9721 115.257 46.9721Z" fill="url(#paint3_linear_2511_9876)" fill-opacity="0.5"/>
</g>
<g style="mix-blend-mode:multiply" opacity="0.5">
<path d="M81.8316 46.9721C71.8945 46.9721 69.0338 55.1777 69.0338 59.5441C69.0338 63.8305 70.7652 64.4374 87.9294 64.4374L92.2957 64.4374V59.5441C92.2957 51.6772 89.1339 46.9721 81.8316 46.9721Z" fill="url(#paint4_linear_2511_9876)" fill-opacity="0.5"/>
</g>
<path d="M92.2957 64.4374C92.2957 56.8339 87.7445 55.78 78.2181 55.78C78.2181 58.6188 83.0544 64.4374 87.9294 64.4374H92.2957Z" fill="#111827"/>
<path d="M104.792 64.4374C104.792 56.8339 109.344 55.78 118.87 55.78C118.87 58.6188 114.034 64.4374 109.159 64.4374H104.792Z" fill="#111827"/>
<path d="M98.5441 85.6667C100.351 85.6667 105.319 82.279 105.319 79.1943C105.319 77.3105 101.781 76.4824 98.5441 76.4824C95.307 76.4824 91.7687 77.3105 91.7687 79.1943C91.7687 82.279 96.7373 85.6667 98.5441 85.6667Z" fill="#111827"/>
<g style="mix-blend-mode:multiply">
<path d="M124.667 43.8855C119.962 40.6484 115.783 39.2181 110.965 39.2181C109.592 39.2181 109.09 38.5719 109.083 37.4866C109.083 35.981 111.951 28.5281 114.203 28.5281C117.364 28.5281 123.048 39.1805 124.667 43.8855Z" fill="url(#paint5_linear_2511_9876)" fill-opacity="0.3"/>
</g>
<g style="mix-blend-mode:multiply">
<path d="M72.4214 43.8855C77.1265 40.6484 81.3046 39.2181 86.1226 39.2181C87.4966 39.2181 87.9985 38.5719 88.0047 37.4866C88.0047 35.981 85.1368 28.5281 82.8855 28.5281C79.7237 28.5281 74.04 39.1805 72.4214 43.8855Z" fill="url(#paint6_linear_2511_9876)" fill-opacity="0.3"/>
</g>
<path d="M157.281 73.6348H149.614V42.4881C149.614 40.32 150.037 38.4956 150.883 37.0149C151.746 35.5166 152.954 34.3885 154.505 33.6306C156.074 32.855 157.933 32.4672 160.084 32.4672C160.789 32.4672 161.468 32.5201 162.12 32.6258C162.772 32.714 163.407 32.8285 164.024 32.9696L163.944 38.7071C163.609 38.619 163.257 38.5573 162.887 38.522C162.516 38.4868 162.085 38.4691 161.591 38.4691C160.674 38.4691 159.89 38.6278 159.238 38.9451C158.603 39.2447 158.118 39.6942 157.784 40.2935C157.449 40.8929 157.281 41.6244 157.281 42.4881V73.6348ZM162.992 45.0264V50.4202H145.357V45.0264H162.992ZM164.686 59.6215V59.0662C164.686 56.9686 164.985 55.0385 165.585 53.2758C166.184 51.4954 167.056 49.9531 168.202 48.6487C169.348 47.3443 170.758 46.3308 172.433 45.6081C174.107 44.8677 176.028 44.4976 178.197 44.4976C180.365 44.4976 182.295 44.8677 183.987 45.6081C185.679 46.3308 187.098 47.3443 188.244 48.6487C189.407 49.9531 190.289 51.4954 190.888 53.2758C191.487 55.0385 191.787 56.9686 191.787 59.0662V59.6215C191.787 61.7014 191.487 63.6316 190.888 65.4119C190.289 67.1746 189.407 68.7169 188.244 70.039C187.098 71.3434 185.688 72.3569 184.013 73.0796C182.339 73.8023 180.418 74.1637 178.249 74.1637C176.081 74.1637 174.151 73.8023 172.459 73.0796C170.784 72.3569 169.366 71.3434 168.202 70.039C167.056 68.7169 166.184 67.1746 165.585 65.4119C164.985 63.6316 164.686 61.7014 164.686 59.6215ZM172.3 59.0662V59.6215C172.3 60.8201 172.406 61.9394 172.618 62.9794C172.829 64.0194 173.164 64.936 173.622 65.7292C174.098 66.5048 174.715 67.1129 175.473 67.5536C176.231 67.9942 177.157 68.2146 178.249 68.2146C179.307 68.2146 180.215 67.9942 180.973 67.5536C181.731 67.1129 182.339 66.5048 182.797 65.7292C183.256 64.936 183.59 64.0194 183.802 62.9794C184.031 61.9394 184.146 60.8201 184.146 59.6215V59.0662C184.146 57.9028 184.031 56.81 183.802 55.7876C183.59 54.7476 183.247 53.831 182.771 53.0378C182.312 52.227 181.704 51.5924 180.946 51.1341C180.188 50.6758 179.272 50.4466 178.197 50.4466C177.121 50.4466 176.205 50.6758 175.447 51.1341C174.706 51.5924 174.098 52.227 173.622 53.0378C173.164 53.831 172.829 54.7476 172.618 55.7876C172.406 56.81 172.3 57.9028 172.3 59.0662ZM200.936 45.0264L205.669 53.7252L210.534 45.0264H218.651L210.561 59.0133L219.022 73.6348H210.878L205.722 64.4336L200.566 73.6348H192.423L200.884 59.0133L192.793 45.0264H200.936ZM225.58 50.526V84.634H222.407V45.0264H225.368L225.58 50.526ZM245.463 59.0662V59.6215C245.463 61.7543 245.216 63.7109 244.723 65.4912C244.229 67.2715 243.515 68.8139 242.581 70.1183C241.664 71.405 240.528 72.401 239.17 73.106C237.813 73.8111 236.271 74.1637 234.543 74.1637C232.833 74.1637 231.309 73.8993 229.969 73.3704C228.629 72.8416 227.475 72.0925 226.505 71.123C225.553 70.1359 224.787 68.9902 224.205 67.6858C223.641 66.3637 223.244 64.9183 223.015 63.3495V56.0256C223.28 54.2981 223.711 52.7293 224.311 51.3192C224.91 49.909 225.677 48.6928 226.611 47.6704C227.563 46.648 228.691 45.8636 229.995 45.3172C231.3 44.7708 232.789 44.4976 234.464 44.4976C236.209 44.4976 237.76 44.8413 239.117 45.5287C240.492 46.1986 241.647 47.1768 242.581 48.4636C243.533 49.7327 244.247 51.2663 244.723 53.0642C245.216 54.8446 245.463 56.8452 245.463 59.0662ZM242.29 59.6215V59.0662C242.29 57.3916 242.114 55.8405 241.761 54.4127C241.426 52.9849 240.906 51.7422 240.201 50.6846C239.514 49.6094 238.633 48.7721 237.557 48.1728C236.5 47.5735 235.239 47.2738 233.776 47.2738C232.26 47.2738 230.965 47.5294 229.89 48.0406C228.832 48.5341 227.951 49.1951 227.246 50.0236C226.541 50.8344 225.985 51.7246 225.58 52.6941C225.174 53.6636 224.875 54.6154 224.681 55.5496V63.9841C225.016 65.3238 225.553 66.5665 226.294 67.7122C227.034 68.8403 228.021 69.7481 229.255 70.4356C230.507 71.1054 232.031 71.4403 233.829 71.4403C235.275 71.4403 236.526 71.1406 237.584 70.5413C238.641 69.942 239.514 69.1047 240.201 68.0295C240.906 66.9542 241.426 65.7027 241.761 64.275C242.114 62.8472 242.29 61.296 242.29 59.6215ZM268.811 68.5054V53.7517C268.811 52.3944 268.529 51.2222 267.965 50.2351C267.401 49.248 266.572 48.4901 265.479 47.9612C264.387 47.4324 263.038 47.168 261.434 47.168C259.953 47.168 258.631 47.4324 257.468 47.9612C256.322 48.4724 255.414 49.1687 254.745 50.05C254.092 50.9138 253.766 51.8744 253.766 52.932L250.594 52.9056C250.594 51.8304 250.858 50.7904 251.387 49.7856C251.916 48.7809 252.665 47.8819 253.634 47.0887C254.604 46.2955 255.758 45.6697 257.098 45.2114C258.455 44.7355 259.945 44.4976 261.566 44.4976C263.611 44.4976 265.409 44.8413 266.96 45.5287C268.529 46.2162 269.754 47.2474 270.635 48.6223C271.517 49.9972 271.957 51.7246 271.957 53.8046V67.6329C271.957 68.62 272.028 69.6424 272.169 70.7C272.328 71.7576 272.548 72.6301 272.83 73.3176V73.6348H269.472C269.26 73.0003 269.093 72.2071 268.97 71.2552C268.864 70.2857 268.811 69.3691 268.811 68.5054ZM269.551 56.9774L269.604 59.4099H263.391C261.769 59.4099 260.315 59.5598 259.028 59.8594C257.759 60.1414 256.684 60.5645 255.802 61.1286C254.921 61.675 254.242 62.336 253.766 63.1116C253.308 63.8872 253.079 64.7685 253.079 65.7556C253.079 66.778 253.335 67.7122 253.846 68.5583C254.375 69.4044 255.115 70.083 256.067 70.5942C257.036 71.0878 258.182 71.3345 259.504 71.3345C261.267 71.3345 262.818 71.0084 264.157 70.3562C265.515 69.704 266.634 68.8491 267.515 67.7915C268.397 66.7339 268.987 65.5793 269.287 64.3278L270.662 66.1522C270.433 67.0336 270.01 67.9414 269.393 68.8756C268.793 69.7922 268.009 70.6559 267.039 71.4667C266.07 72.2599 264.924 72.9121 263.602 73.4233C262.298 73.9169 260.817 74.1637 259.16 74.1637C257.292 74.1637 255.661 73.8111 254.269 73.106C252.894 72.401 251.819 71.4403 251.043 70.224C250.285 68.9902 249.906 67.5976 249.906 66.0465C249.906 64.6363 250.206 63.376 250.805 62.2655C251.404 61.1374 252.268 60.1855 253.396 59.4099C254.542 58.6167 255.917 58.0174 257.521 57.612C259.143 57.1889 260.958 56.9774 262.968 56.9774H269.551ZM287.294 66.9454L294.195 45.0264H296.416L295.094 50.9226L287.876 73.6348H285.655L287.294 66.9454ZM280.128 45.0264L286.183 67.0776L287.479 73.6348H285.179L276.876 45.0264H280.128ZM305.009 66.9983L310.905 45.0264H314.157L305.855 73.6348H303.581L305.009 66.9983ZM296.865 45.0264L303.66 66.7604L305.379 73.6348H303.158L295.781 50.8961L294.539 45.0264H296.865ZM159.317 134.44C160.657 134.44 161.908 134.194 163.072 133.7C164.253 133.189 165.222 132.44 165.98 131.453C166.756 130.448 167.196 129.223 167.302 127.777H170.316C170.228 129.593 169.673 131.215 168.651 132.642C167.646 134.053 166.324 135.163 164.685 135.974C163.063 136.767 161.274 137.164 159.317 137.164C157.325 137.164 155.563 136.802 154.029 136.08C152.513 135.357 151.244 134.352 150.222 133.065C149.199 131.761 148.424 130.245 147.895 128.518C147.384 126.773 147.128 124.895 147.128 122.886V121.775C147.128 119.766 147.384 117.897 147.895 116.17C148.424 114.425 149.199 112.909 150.222 111.622C151.244 110.318 152.513 109.304 154.029 108.582C155.545 107.859 157.299 107.498 159.291 107.498C161.335 107.498 163.169 107.912 164.79 108.74C166.43 109.569 167.734 110.741 168.703 112.257C169.691 113.773 170.228 115.571 170.316 117.651H167.302C167.214 116.117 166.809 114.795 166.086 113.685C165.363 112.574 164.411 111.719 163.23 111.12C162.049 110.521 160.736 110.221 159.291 110.221C157.669 110.221 156.285 110.538 155.14 111.173C153.994 111.79 153.06 112.645 152.337 113.737C151.632 114.813 151.112 116.047 150.777 117.439C150.442 118.814 150.275 120.259 150.275 121.775V122.886C150.275 124.419 150.433 125.882 150.75 127.275C151.085 128.65 151.605 129.875 152.31 130.95C153.033 132.025 153.967 132.88 155.113 133.515C156.276 134.132 157.678 134.44 159.317 134.44ZM173.86 122.78V121.908C173.86 119.828 174.16 117.906 174.759 116.144C175.359 114.381 176.214 112.856 177.324 111.569C178.452 110.283 179.801 109.287 181.369 108.582C182.938 107.859 184.683 107.498 186.605 107.498C188.544 107.498 190.297 107.859 191.866 108.582C193.435 109.287 194.784 110.283 195.912 111.569C197.04 112.856 197.904 114.381 198.503 116.144C199.102 117.906 199.402 119.828 199.402 121.908V122.78C199.402 124.86 199.102 126.781 198.503 128.544C197.904 130.289 197.04 131.805 195.912 133.092C194.801 134.379 193.462 135.383 191.893 136.106C190.324 136.811 188.579 137.164 186.658 137.164C184.719 137.164 182.965 136.811 181.396 136.106C179.827 135.383 178.479 134.379 177.351 133.092C176.222 131.805 175.359 130.289 174.759 128.544C174.16 126.781 173.86 124.86 173.86 122.78ZM177.007 121.908V122.78C177.007 124.349 177.218 125.838 177.641 127.249C178.064 128.641 178.681 129.884 179.492 130.977C180.303 132.052 181.308 132.898 182.506 133.515C183.705 134.132 185.089 134.44 186.658 134.44C188.209 134.44 189.575 134.132 190.756 133.515C191.954 132.898 192.959 132.052 193.77 130.977C194.581 129.884 195.189 128.641 195.594 127.249C196.017 125.838 196.229 124.349 196.229 122.78V121.908C196.229 120.356 196.017 118.885 195.594 117.492C195.189 116.099 194.572 114.857 193.744 113.764C192.933 112.671 191.928 111.807 190.729 111.173C189.531 110.538 188.156 110.221 186.605 110.221C185.053 110.221 183.679 110.538 182.48 111.173C181.299 111.807 180.294 112.671 179.466 113.764C178.655 114.857 178.038 116.099 177.615 117.492C177.209 118.885 177.007 120.356 177.007 121.908ZM207.864 113.949V136.635H204.691V108.026H207.732L207.864 113.949ZM207.282 120.559L205.749 119.766C205.854 118.074 206.172 116.487 206.7 115.007C207.247 113.526 208.005 112.222 208.974 111.093C209.944 109.965 211.107 109.084 212.464 108.449C213.822 107.815 215.364 107.498 217.091 107.498C218.484 107.498 219.744 107.691 220.872 108.079C222.018 108.449 222.988 109.04 223.781 109.851C224.592 110.644 225.217 111.684 225.658 112.971C226.099 114.257 226.319 115.8 226.319 117.598V136.635H223.173V117.704C223.173 115.8 222.873 114.31 222.274 113.235C221.692 112.16 220.872 111.393 219.815 110.935C218.775 110.477 217.567 110.247 216.192 110.247C214.571 110.247 213.196 110.582 212.068 111.252C210.957 111.904 210.05 112.759 209.344 113.817C208.657 114.857 208.146 115.976 207.811 117.175C207.476 118.356 207.3 119.484 207.282 120.559ZM226.293 118.074L224.177 118.127C224.266 116.734 224.583 115.403 225.129 114.134C225.693 112.865 226.46 111.737 227.43 110.75C228.399 109.745 229.554 108.952 230.893 108.37C232.251 107.788 233.775 107.498 235.468 107.498C236.948 107.498 238.27 107.7 239.434 108.106C240.597 108.493 241.575 109.119 242.368 109.983C243.179 110.829 243.796 111.913 244.219 113.235C244.642 114.557 244.854 116.144 244.854 117.994V136.635H241.681V117.968C241.681 115.941 241.381 114.372 240.782 113.262C240.2 112.133 239.39 111.349 238.35 110.908C237.31 110.468 236.093 110.247 234.701 110.247C233.326 110.265 232.118 110.521 231.078 111.014C230.038 111.49 229.166 112.125 228.461 112.918C227.773 113.693 227.245 114.531 226.874 115.43C226.522 116.329 226.328 117.21 226.293 118.074ZM254.929 113.526V147.634H251.756V108.026H254.717L254.929 113.526ZM274.812 122.066V122.621C274.812 124.754 274.565 126.711 274.072 128.491C273.578 130.272 272.864 131.814 271.93 133.118C271.013 134.405 269.876 135.401 268.519 136.106C267.162 136.811 265.619 137.164 263.892 137.164C262.182 137.164 260.657 136.899 259.318 136.37C257.978 135.842 256.824 135.092 255.854 134.123C254.902 133.136 254.135 131.99 253.554 130.686C252.99 129.364 252.593 127.918 252.364 126.35V119.026C252.628 117.298 253.06 115.729 253.66 114.319C254.259 112.909 255.026 111.693 255.96 110.67C256.912 109.648 258.04 108.864 259.344 108.317C260.649 107.771 262.138 107.498 263.813 107.498C265.558 107.498 267.109 107.841 268.466 108.529C269.841 109.199 270.996 110.177 271.93 111.464C272.882 112.733 273.596 114.266 274.072 116.064C274.565 117.845 274.812 119.845 274.812 122.066ZM271.639 122.621V122.066C271.639 120.392 271.463 118.84 271.11 117.413C270.775 115.985 270.255 114.742 269.55 113.685C268.863 112.609 267.981 111.772 266.906 111.173C265.849 110.573 264.588 110.274 263.125 110.274C261.609 110.274 260.314 110.529 259.238 111.041C258.181 111.534 257.3 112.195 256.594 113.024C255.889 113.834 255.334 114.725 254.929 115.694C254.523 116.664 254.224 117.615 254.03 118.55V126.984C254.365 128.324 254.902 129.566 255.643 130.712C256.383 131.84 257.37 132.748 258.604 133.436C259.855 134.105 261.38 134.44 263.178 134.44C264.624 134.44 265.875 134.141 266.933 133.541C267.99 132.942 268.863 132.105 269.55 131.029C270.255 129.954 270.775 128.703 271.11 127.275C271.463 125.847 271.639 124.296 271.639 122.621ZM279.017 122.78V121.908C279.017 119.828 279.317 117.906 279.916 116.144C280.515 114.381 281.37 112.856 282.481 111.569C283.609 110.283 284.957 109.287 286.526 108.582C288.095 107.859 289.84 107.498 291.761 107.498C293.7 107.498 295.454 107.859 297.023 108.582C298.592 109.287 299.94 110.283 301.068 111.569C302.196 112.856 303.06 114.381 303.659 116.144C304.259 117.906 304.558 119.828 304.558 121.908V122.78C304.558 124.86 304.259 126.781 303.659 128.544C303.06 130.289 302.196 131.805 301.068 133.092C299.958 134.379 298.618 135.383 297.049 136.106C295.48 136.811 293.735 137.164 291.814 137.164C289.875 137.164 288.121 136.811 286.552 136.106C284.984 135.383 283.635 134.379 282.507 133.092C281.379 131.805 280.515 130.289 279.916 128.544C279.317 126.781 279.017 124.86 279.017 122.78ZM282.163 121.908V122.78C282.163 124.349 282.375 125.838 282.798 127.249C283.221 128.641 283.838 129.884 284.649 130.977C285.46 132.052 286.464 132.898 287.663 133.515C288.862 134.132 290.245 134.44 291.814 134.44C293.365 134.44 294.731 134.132 295.912 133.515C297.111 132.898 298.116 132.052 298.927 130.977C299.737 129.884 300.346 128.641 300.751 127.249C301.174 125.838 301.386 124.349 301.386 122.78V121.908C301.386 120.356 301.174 118.885 300.751 117.492C300.346 116.099 299.729 114.857 298.9 113.764C298.089 112.671 297.085 111.807 295.886 111.173C294.687 110.538 293.312 110.221 291.761 110.221C290.21 110.221 288.835 110.538 287.637 111.173C286.456 111.807 285.451 112.671 284.622 113.764C283.811 114.857 283.195 116.099 282.771 117.492C282.366 118.885 282.163 120.356 282.163 121.908ZM313.179 114.134V136.635H310.033V108.026H313.047L313.179 114.134ZM312.465 120.559L311.064 119.766C311.169 118.074 311.513 116.487 312.095 115.007C312.677 113.526 313.461 112.222 314.448 111.093C315.453 109.965 316.625 109.084 317.965 108.449C319.322 107.815 320.82 107.498 322.46 107.498C323.887 107.498 325.165 107.691 326.293 108.079C327.422 108.467 328.382 109.084 329.175 109.93C329.969 110.776 330.568 111.86 330.973 113.182C331.396 114.504 331.608 116.117 331.608 118.021V136.635H328.435V117.994C328.435 116.02 328.162 114.478 327.615 113.367C327.069 112.239 326.293 111.437 325.289 110.961C324.284 110.485 323.094 110.247 321.719 110.247C320.203 110.247 318.872 110.582 317.727 111.252C316.599 111.904 315.647 112.759 314.871 113.817C314.113 114.857 313.532 115.976 313.126 117.175C312.721 118.356 312.5 119.484 312.465 120.559ZM349.773 137.164C347.905 137.164 346.186 136.82 344.618 136.132C343.066 135.445 341.709 134.476 340.546 133.224C339.4 131.973 338.51 130.492 337.875 128.782C337.258 127.055 336.95 125.169 336.95 123.124V121.987C336.95 119.784 337.276 117.792 337.928 116.011C338.58 114.231 339.479 112.706 340.625 111.437C341.771 110.168 343.075 109.199 344.538 108.529C346.019 107.841 347.57 107.498 349.192 107.498C351.007 107.498 352.62 107.824 354.03 108.476C355.441 109.11 356.622 110.018 357.573 111.199C358.543 112.363 359.274 113.746 359.768 115.35C360.262 116.937 360.508 118.691 360.508 120.612V122.542H338.854V119.845H357.362V119.475C357.327 117.871 357.001 116.373 356.384 114.98C355.784 113.57 354.885 112.424 353.687 111.543C352.488 110.662 350.99 110.221 349.192 110.221C347.852 110.221 346.618 110.503 345.49 111.067C344.38 111.631 343.419 112.442 342.608 113.5C341.815 114.54 341.198 115.782 340.757 117.228C340.334 118.655 340.123 120.242 340.123 121.987V123.124C340.123 124.71 340.352 126.191 340.81 127.566C341.286 128.923 341.956 130.122 342.82 131.162C343.701 132.202 344.741 133.013 345.94 133.594C347.138 134.176 348.46 134.467 349.906 134.467C351.598 134.467 353.096 134.158 354.401 133.541C355.705 132.907 356.877 131.911 357.917 130.554L359.9 132.087C359.283 133.004 358.508 133.85 357.573 134.625C356.657 135.401 355.555 136.018 354.268 136.476C352.982 136.935 351.483 137.164 349.773 137.164ZM368.812 114.134V136.635H365.665V108.026H368.679L368.812 114.134ZM368.098 120.559L366.696 119.766C366.802 118.074 367.146 116.487 367.728 115.007C368.309 113.526 369.094 112.222 370.081 111.093C371.086 109.965 372.258 109.084 373.597 108.449C374.955 107.815 376.453 107.498 378.092 107.498C379.52 107.498 380.798 107.691 381.926 108.079C383.054 108.467 384.015 109.084 384.808 109.93C385.601 110.776 386.201 111.86 386.606 113.182C387.029 114.504 387.241 116.117 387.241 118.021V136.635H384.068V117.994C384.068 116.02 383.795 114.478 383.248 113.367C382.702 112.239 381.926 111.437 380.921 110.961C379.917 110.485 378.727 110.247 377.352 110.247C375.836 110.247 374.505 110.582 373.359 111.252C372.231 111.904 371.279 112.759 370.504 113.817C369.746 114.857 369.164 115.976 368.759 117.175C368.353 118.356 368.133 119.484 368.098 120.559ZM405.168 108.026V110.618H390.838V108.026H405.168ZM396.099 100.676H399.246V129.681C399.246 131.003 399.422 131.999 399.774 132.669C400.127 133.339 400.585 133.788 401.149 134.017C401.713 134.246 402.321 134.361 402.974 134.361C403.45 134.361 403.908 134.335 404.349 134.282C404.789 134.211 405.186 134.141 405.538 134.07L405.671 136.741C405.283 136.864 404.78 136.961 404.163 137.031C403.547 137.12 402.93 137.164 402.313 137.164C401.096 137.164 400.021 136.943 399.087 136.503C398.153 136.044 397.421 135.269 396.892 134.176C396.364 133.065 396.099 131.558 396.099 129.655V100.676ZM152.284 159.022V199.635H149.138V159.022H152.284ZM163.364 171.026V199.635H160.217V171.026H163.364ZM159.662 162.751C159.662 162.151 159.847 161.649 160.217 161.243C160.605 160.82 161.134 160.609 161.804 160.609C162.473 160.609 163.002 160.82 163.39 161.243C163.795 161.649 163.998 162.151 163.998 162.751C163.998 163.332 163.795 163.835 163.39 164.258C163.002 164.663 162.473 164.866 161.804 164.866C161.134 164.866 160.605 164.663 160.217 164.258C159.847 163.835 159.662 163.332 159.662 162.751ZM170.874 159.022H174.047V194.082L173.835 199.635H170.874V159.022ZM193.956 185.066V185.621C193.956 187.754 193.709 189.711 193.216 191.491C192.722 193.272 192.008 194.814 191.074 196.118C190.14 197.405 188.994 198.401 187.637 199.106C186.297 199.811 184.755 200.164 183.01 200.164C181.3 200.164 179.784 199.899 178.462 199.37C177.14 198.824 176.012 198.057 175.078 197.07C174.143 196.065 173.394 194.893 172.83 193.554C172.266 192.196 171.87 190.707 171.64 189.085V182.026C171.905 180.298 172.328 178.729 172.91 177.319C173.491 175.909 174.24 174.693 175.157 173.67C176.091 172.648 177.202 171.864 178.489 171.317C179.793 170.771 181.282 170.498 182.957 170.498C184.702 170.498 186.253 170.841 187.61 171.529C188.985 172.199 190.14 173.177 191.074 174.464C192.008 175.733 192.722 177.266 193.216 179.064C193.709 180.845 193.956 182.845 193.956 185.066ZM190.757 185.621V185.066C190.757 183.392 190.598 181.84 190.281 180.413C189.964 178.985 189.461 177.742 188.774 176.685C188.104 175.609 187.24 174.772 186.183 174.173C185.125 173.573 183.856 173.274 182.375 173.274C180.859 173.274 179.564 173.529 178.489 174.041C177.431 174.534 176.55 175.195 175.844 176.024C175.157 176.834 174.611 177.725 174.205 178.694C173.8 179.664 173.5 180.615 173.306 181.55V189.773C173.606 191.095 174.126 192.337 174.866 193.501C175.607 194.664 176.602 195.607 177.854 196.33C179.105 197.035 180.63 197.387 182.428 197.387C183.874 197.387 185.116 197.088 186.156 196.488C187.214 195.889 188.078 195.061 188.747 194.003C189.435 192.945 189.937 191.703 190.254 190.275C190.589 188.847 190.757 187.296 190.757 185.621ZM203.026 175.759V199.635H199.88V171.026H202.947L203.026 175.759ZM213.153 170.815L213.074 173.723C212.721 173.67 212.377 173.626 212.042 173.591C211.707 173.556 211.346 173.538 210.958 173.538C209.583 173.538 208.376 173.794 207.336 174.305C206.314 174.799 205.45 175.495 204.745 176.394C204.04 177.275 203.502 178.315 203.132 179.514C202.762 180.695 202.55 181.964 202.497 183.321L201.334 183.771C201.334 181.902 201.528 180.166 201.916 178.562C202.304 176.958 202.894 175.556 203.687 174.358C204.498 173.142 205.512 172.199 206.728 171.529C207.962 170.841 209.407 170.498 211.064 170.498C211.47 170.498 211.866 170.533 212.254 170.603C212.659 170.656 212.959 170.727 213.153 170.815ZM233.381 194.505V179.752C233.381 178.394 233.099 177.222 232.535 176.235C231.971 175.248 231.142 174.49 230.049 173.961C228.956 173.432 227.608 173.168 226.004 173.168C224.523 173.168 223.201 173.432 222.038 173.961C220.892 174.472 219.984 175.169 219.315 176.05C218.662 176.914 218.336 177.874 218.336 178.932L215.163 178.906C215.163 177.83 215.428 176.79 215.957 175.786C216.485 174.781 217.235 173.882 218.204 173.089C219.174 172.296 220.328 171.67 221.668 171.211C223.025 170.736 224.515 170.498 226.136 170.498C228.181 170.498 229.979 170.841 231.53 171.529C233.099 172.216 234.324 173.247 235.205 174.622C236.087 175.997 236.527 177.725 236.527 179.805V193.633C236.527 194.62 236.598 195.642 236.739 196.7C236.897 197.758 237.118 198.63 237.4 199.318V199.635H234.042C233.83 199 233.663 198.207 233.539 197.255C233.434 196.286 233.381 195.369 233.381 194.505ZM234.121 182.977L234.174 185.41H227.961C226.339 185.41 224.885 185.56 223.598 185.859C222.329 186.141 221.254 186.564 220.372 187.129C219.491 187.675 218.812 188.336 218.336 189.112C217.878 189.887 217.649 190.769 217.649 191.756C217.649 192.778 217.904 193.712 218.416 194.558C218.944 195.404 219.685 196.083 220.637 196.594C221.606 197.088 222.752 197.335 224.074 197.335C225.837 197.335 227.388 197.008 228.727 196.356C230.085 195.704 231.204 194.849 232.085 193.792C232.967 192.734 233.557 191.579 233.857 190.328L235.232 192.152C235.003 193.034 234.579 193.941 233.963 194.876C233.363 195.792 232.579 196.656 231.609 197.467C230.64 198.26 229.494 198.912 228.172 199.423C226.868 199.917 225.387 200.164 223.73 200.164C221.862 200.164 220.231 199.811 218.839 199.106C217.464 198.401 216.388 197.44 215.613 196.224C214.855 194.99 214.476 193.598 214.476 192.046C214.476 190.636 214.776 189.376 215.375 188.265C215.974 187.137 216.838 186.186 217.966 185.41C219.112 184.617 220.487 184.017 222.091 183.612C223.712 183.189 225.528 182.977 227.538 182.977H234.121ZM247.078 175.759V199.635H243.932V171.026H246.999L247.078 175.759ZM257.205 170.815L257.125 173.723C256.773 173.67 256.429 173.626 256.094 173.591C255.759 173.556 255.398 173.538 255.01 173.538C253.635 173.538 252.428 173.794 251.388 174.305C250.365 174.799 249.502 175.495 248.797 176.394C248.092 177.275 247.554 178.315 247.184 179.514C246.814 180.695 246.602 181.964 246.549 183.321L245.386 183.771C245.386 181.902 245.58 180.166 245.968 178.562C246.355 176.958 246.946 175.556 247.739 174.358C248.55 173.142 249.563 172.199 250.78 171.529C252.014 170.841 253.459 170.498 255.116 170.498C255.521 170.498 255.918 170.533 256.306 170.603C256.711 170.656 257.011 170.727 257.205 170.815ZM270.056 196.779L278.966 171.026H282.377L270.267 204.235C270.021 204.888 269.703 205.61 269.315 206.404C268.945 207.197 268.452 207.955 267.835 208.677C267.235 209.418 266.478 210.017 265.561 210.475C264.662 210.951 263.56 211.189 262.256 211.189C261.921 211.189 261.489 211.145 260.96 211.057C260.449 210.987 260.079 210.916 259.85 210.846L259.823 208.175C260.017 208.228 260.299 208.272 260.669 208.307C261.04 208.343 261.295 208.36 261.436 208.36C262.582 208.36 263.543 208.166 264.318 207.778C265.111 207.391 265.772 206.809 266.301 206.033C266.83 205.275 267.297 204.324 267.703 203.178L270.056 196.779ZM261.727 171.026L270.849 195.589L271.695 198.895L269.395 200.19L258.29 171.026H261.727Z" fill="#6B7280"/>
<defs>
<linearGradient id="paint0_linear_2511_9876" x1="98.5441" y1="73.8475" x2="98.5441" y2="98.0881" gradientUnits="userSpaceOnUse">
<stop stop-color="white"/>
<stop offset="1" stop-color="#FF9F75"/>
</linearGradient>
<radialGradient id="paint1_radial_2511_9876" cx="0" cy="0" r="1" gradientUnits="userSpaceOnUse" gradientTransform="translate(98.5441 73.8475) rotate(180) scale(31.0159 52.8475)">
<stop offset="0.218443" stop-color="#FF9F75" stop-opacity="0"/>
<stop offset="1" stop-color="#FF9F75"/>
</radialGradient>
<radialGradient id="paint2_radial_2511_9876" cx="0" cy="0" r="1" gradientUnits="userSpaceOnUse" gradientTransform="translate(98.5441 64.4374) rotate(-90) scale(35.9092 29.5106)">
<stop stop-color="#FF9F75"/>
<stop offset="1" stop-color="#FF4E00"/>
</radialGradient>
<linearGradient id="paint3_linear_2511_9876" x1="119.356" y1="46.9721" x2="119.356" y2="64.4374" gradientUnits="userSpaceOnUse">
<stop stop-color="#712200"/>
<stop offset="1" stop-color="#FF4E00" stop-opacity="0"/>
</linearGradient>
<linearGradient id="paint4_linear_2511_9876" x1="77.7322" y1="46.9721" x2="77.7322" y2="64.4374" gradientUnits="userSpaceOnUse">
<stop stop-color="#712200"/>
<stop offset="1" stop-color="#FF4E00" stop-opacity="0"/>
</linearGradient>
<linearGradient id="paint5_linear_2511_9876" x1="114.842" y1="28.5281" x2="114.842" y2="45.2406" gradientUnits="userSpaceOnUse">
<stop stop-color="#381100"/>
<stop offset="1" stop-color="#FF4E00" stop-opacity="0"/>
</linearGradient>
<linearGradient id="paint6_linear_2511_9876" x1="82.2456" y1="28.5281" x2="82.2456" y2="45.2406" gradientUnits="userSpaceOnUse">
<stop stop-color="#381100"/>
<stop offset="1" stop-color="#FF4E00" stop-opacity="0"/>
</linearGradient>
</defs>
</svg>
